<svg xmlns="http://www.w3.org/2000/svg" xmlns:xlink="http://www.w3.org/1999/xlink" width="140" zoomAndPan="magnify" viewBox="0 0 104.88 104.999996" height="140" preserveAspectRatio="xMidYMid meet" version="1.0"><defs><clipPath id="4ebdf5c2f0"><path d="M 3 15 L 47 15 L 47 89.796875 L 3 89.796875 Z M 3 15 " clip-rule="nonzero"/></clipPath><clipPath id="a0717b62db"><path d="M 52 77 L 102.667969 77 L 102.667969 89.796875 L 52 89.796875 Z M 52 77 " clip-rule="nonzero"/></clipPath></defs><g clip-path="url(#4ebdf5c2f0)"><path fill="#c3431c" d="M 9.230469 90.113281 C 8.613281 90.113281 8.011719 90.023438 7.425781 89.84375 C 6.835938 89.664062 6.285156 89.40625 5.773438 89.0625 C 5.265625 88.722656 4.8125 88.3125 4.421875 87.839844 C 4.035156 87.363281 3.722656 86.839844 3.484375 86.273438 C 3.25 85.707031 3.101562 85.117188 3.042969 84.503906 C 2.980469 83.890625 3.011719 83.285156 3.132812 82.683594 C 3.25 82.078125 3.457031 81.507812 3.746094 80.964844 C 4.035156 80.421875 4.398438 79.933594 4.832031 79.5 L 31.519531 52.808594 L 4.832031 26.117188 C 4.550781 25.824219 4.300781 25.511719 4.082031 25.171875 C 3.863281 24.832031 3.679688 24.476562 3.53125 24.101562 C 3.378906 23.726562 3.269531 23.339844 3.195312 22.945312 C 3.121094 22.546875 3.085938 22.148438 3.085938 21.742188 C 3.089844 21.339844 3.132812 20.941406 3.214844 20.542969 C 3.296875 20.148438 3.414062 19.765625 3.570312 19.394531 C 3.726562 19.019531 3.917969 18.667969 4.144531 18.332031 C 4.367188 17.996094 4.625 17.6875 4.910156 17.402344 C 5.195312 17.113281 5.503906 16.859375 5.839844 16.636719 C 6.175781 16.410156 6.527344 16.21875 6.902344 16.0625 C 7.273438 15.90625 7.65625 15.789062 8.050781 15.707031 C 8.449219 15.625 8.847656 15.582031 9.25 15.578125 C 9.65625 15.578125 10.054688 15.613281 10.453125 15.6875 C 10.847656 15.761719 11.234375 15.871094 11.609375 16.023438 C 11.984375 16.171875 12.339844 16.355469 12.679688 16.574219 C 13.019531 16.792969 13.332031 17.042969 13.625 17.324219 L 44.710938 48.410156 C 45 48.699219 45.257812 49.015625 45.484375 49.355469 C 45.710938 49.691406 45.902344 50.050781 46.058594 50.429688 C 46.214844 50.804688 46.332031 51.195312 46.414062 51.59375 C 46.492188 51.996094 46.53125 52.398438 46.53125 52.808594 C 46.53125 53.214844 46.492188 53.621094 46.414062 54.019531 C 46.332031 54.421875 46.214844 54.808594 46.058594 55.1875 C 45.902344 55.5625 45.710938 55.921875 45.484375 56.261719 C 45.257812 56.601562 45 56.914062 44.710938 57.203125 L 13.625 88.289062 C 13.042969 88.875 12.371094 89.324219 11.609375 89.640625 C 10.847656 89.957031 10.054688 90.113281 9.230469 90.113281 Z M 9.230469 90.113281 " fill-opacity="1" fill-rule="nonzero"/></g><g clip-path="url(#a0717b62db)"><path fill="#c3431c" d="M 96.273438 90.113281 L 58.96875 90.113281 C 58.558594 90.113281 58.15625 90.070312 57.753906 89.992188 C 57.355469 89.914062 56.964844 89.792969 56.589844 89.636719 C 56.210938 89.480469 55.851562 89.289062 55.511719 89.0625 C 55.175781 88.835938 54.859375 88.578125 54.570312 88.289062 C 54.28125 88.003906 54.023438 87.6875 53.796875 87.347656 C 53.570312 87.007812 53.378906 86.652344 53.222656 86.273438 C 53.066406 85.898438 52.949219 85.507812 52.871094 85.105469 C 52.789062 84.707031 52.75 84.300781 52.75 83.894531 C 52.75 83.484375 52.789062 83.082031 52.871094 82.679688 C 52.949219 82.28125 53.066406 81.890625 53.222656 81.515625 C 53.378906 81.136719 53.570312 80.78125 53.796875 80.441406 C 54.023438 80.101562 54.28125 79.785156 54.570312 79.496094 C 54.859375 79.210938 55.175781 78.953125 55.511719 78.726562 C 55.851562 78.496094 56.210938 78.304688 56.589844 78.148438 C 56.964844 77.992188 57.355469 77.875 57.753906 77.796875 C 58.15625 77.71875 58.558594 77.675781 58.96875 77.675781 L 96.273438 77.675781 C 96.679688 77.675781 97.085938 77.71875 97.484375 77.796875 C 97.886719 77.875 98.273438 77.992188 98.652344 78.148438 C 99.027344 78.304688 99.386719 78.496094 99.726562 78.726562 C 100.066406 78.953125 100.378906 79.210938 100.667969 79.496094 C 100.957031 79.785156 101.214844 80.101562 101.441406 80.441406 C 101.667969 80.78125 101.859375 81.136719 102.015625 81.515625 C 102.171875 81.890625 102.289062 82.28125 102.371094 82.679688 C 102.449219 83.082031 102.488281 83.484375 102.488281 83.894531 C 102.488281 84.300781 102.449219 84.707031 102.371094 85.105469 C 102.289062 85.507812 102.171875 85.898438 102.015625 86.273438 C 101.859375 86.652344 101.667969 87.007812 101.441406 87.347656 C 101.214844 87.6875 100.957031 88.003906 100.667969 88.289062 C 100.378906 88.578125 100.066406 88.835938 99.726562 89.0625 C 99.386719 89.289062 99.027344 89.480469 98.652344 89.636719 C 98.273438 89.792969 97.886719 89.914062 97.484375 89.992188 C 97.085938 90.070312 96.679688 90.113281 96.273438 90.113281 Z M 96.273438 90.113281 " fill-opacity="1" fill-rule="nonzero"/></g></svg>